<?xml version="1.0" encoding="UTF-8"?><svg xmlns="http://www.w3.org/2000/svg" id="Logo" viewBox="0 0 3486.61 1080"><defs><style> .cls-1 { fill: #fff; stroke-width: 0px; } </style></defs><path id="Logogram" class="cls-1" d="M190.4,176.62c-8.58,0-15.54,6.93-15.54,15.49v423.69c0,8.25.34,16.19,1.01,23.67,5.83,71.74,38.31,138.3,91.46,187.39,53.42,49.35,123.01,76.51,195.9,76.51s142.44-27.15,195.91-76.51c53.15-49.08,85.63-115.6,91.49-187.26.67-7.52,1.01-15.49,1.01-23.79V192.12c0-8.56-6.96-15.49-15.54-15.49H190.4ZM679.8,620.15c0,120.16-98.92,217.72-219.88,215.9-118.86-1.78-213.23-100.64-213.23-219.15v-42.57l3.53-2.29c20.08-13.09,41.5-24.37,63.68-33.51l10.72-4.42v83.4c0,75.46,59.61,138.95,135.25,140.74,77.94,1.82,141.93-60.86,141.93-138.14v-86l10.77,4.42c22.07,9.11,43.52,20.38,63.68,33.51l3.54,2.29v45.82h.01ZM422.43,636.07v-125.01l7.12-.58c22.34-1.93,45-1.93,67.37,0l7.11.58v126.22c0,23.71-20.47,42.77-44.72,40.48-21.14-1.98-36.87-20.5-36.87-41.69h-.01,0ZM679.8,488.67l-11.24-5.54c-19.69-9.76-40.37-18.17-61.39-24.99l-5.36-1.74v-126.98c0-4.26-3.5-7.75-7.77-7.75h-82.26c-4.27,0-7.77,3.49-7.77,7.75v107.74l-8.32-.58c-21.56-1.54-43.4-1.54-64.97,0l-8.32.58v-107.74c0-4.26-3.5-7.75-7.77-7.75h-82.26c-4.27,0-7.77,3.49-7.77,7.75v126.98l-5.36,1.74c-20.83,6.78-41.5,15.18-61.35,24.99l-11.22,5.54v-244.76h433.1v244.76h.03Z"/><g id="Logotype"><path class="cls-1" d="M2482.37,676.97h-24.23v-25.24h24.23c11.1,0,17.16-4.04,19.68-11.1l5.29-14.13h-5.55l-52.99-133.73h32.04l38.36,101.43,37.59-101.43h31.04l-58.29,156.69c-6.81,17.92-20.94,27.51-47.19,27.51h.02Z"/><path class="cls-1" d="M2365.01,681.01c-37.35,0-63.08-18.17-63.08-46.93h29.77c0,12.62,13.37,22.71,33.3,22.71,23.72,0,36.08-14.13,36.08-34.31v-18.93c-8.57,12.87-23.46,20.94-42.64,20.94-35.83,0-61.57-27.75-61.57-67.62s25.74-68.13,61.31-68.13c20.94,0,37.85,9.84,46.18,24.73l2.53-20.69h23.72v129.69c0,35.32-24.98,58.54-65.6,58.54h0ZM2364.24,599.51c21.7,0,36.84-17.66,36.84-42.9s-15.14-42.64-36.84-42.64-36.58,17.41-36.58,42.9,14.89,42.64,36.58,42.64Z"/><path class="cls-1" d="M2212.26,630.29c-43.4,0-68.63-30.54-68.63-71.91,0-43.65,29.52-69.64,68.63-69.64,43.15,0,68.38,30.28,68.38,69.64,0,45.17-28.51,71.91-68.38,71.91h0ZM2212.26,604.81c23.97,0,38.1-19.69,38.1-46.42s-14.89-44.16-38.1-44.16-38.36,17.66-38.36,44.16c0,29.27,16.4,46.42,38.36,46.42Z"/><path class="cls-1" d="M2119.85,626.5h-29.77v-189.24h29.77v189.24Z"/><path class="cls-1" d="M1997.89,630.29c-43.4,0-68.63-30.54-68.63-71.91,0-43.65,29.52-69.64,68.63-69.64,43.14,0,68.38,30.28,68.38,69.64,0,45.17-28.52,71.91-68.38,71.91h0ZM1997.89,604.81c23.98,0,38.1-19.69,38.1-46.42s-14.89-44.16-38.1-44.16-38.35,17.66-38.35,44.16c0,29.27,16.4,46.42,38.35,46.42Z"/><path class="cls-1" d="M1818.74,626.5h-29.77v-133.73h23.98l2.52,19.68c8.33-13.88,25.23-23.72,45.17-23.72,28.52,0,47.19,19.18,47.19,49.2v88.57h-29.77v-87.05c0-14.89-9.84-24.73-26.49-24.73-19.43,0-32.55,13.37-32.8,30.78v81h-.03Z"/><path class="cls-1" d="M1671.41,626.5h-29.77v-189.24h29.77v69.89c9.09-11.1,24.48-18.42,41.88-18.42,28.52,0,47.19,19.18,47.19,49.2v88.57h-29.77v-87.05c0-14.89-9.84-24.73-25.74-24.73-20.18,0-33.3,13.37-33.56,30.79v81h0Z"/><path class="cls-1" d="M1554.86,630.29c-43.65,0-69.13-31.29-69.13-71.66,0-43.91,29.52-69.89,68.38-69.89,36.58,0,61.31,22.46,63.84,55.76h-29.27c-2.78-18.42-15.9-30.28-34.82-30.28-22.71,0-37.85,17.16-37.85,44.41,0,29.27,16.65,46.18,38.85,46.18,18.17,0,30.78-11.6,33.82-30.78h29.27c-3.53,34.57-27.5,56.27-63.09,56.27h0Z"/><path class="cls-1" d="M1408.24,630.29c-40.88,0-68.88-29.27-68.88-70.14,0-44.16,29.02-71.41,66.36-71.41s63.08,26.49,63.84,69.89v7.07h-100.42c2.01,23.46,16.65,39.36,39.36,39.36,15.39,0,27-7.57,31.54-20.94h29.02c-6.81,28.76-29.27,46.18-60.81,46.18h0ZM1370.39,544.76h68.38c-3.79-19.18-15.64-30.79-33.05-30.79s-30.78,11.61-35.32,30.79h-.01Z"/><path class="cls-1" d="M1290.18,626.5h-30.28v-149.37h-59.04v-27.25h148.12v27.25h-58.79v149.37h-.01,0Z"/><path class="cls-1" d="M1095.4,626.5h-29.78v-108.5h-23.46v-25.23h23.46v-16.65c0-25.23,14.89-38.85,42.64-38.85h29.02v25.23h-27c-9.59,0-14.89,5.55-14.89,15.64v14.64h38.86v25.23h-38.86v108.5h.01Z"/><path class="cls-1" d="M962.25,630.29c-43.4,0-68.63-30.54-68.63-71.91,0-43.65,29.52-69.64,68.63-69.64,43.14,0,68.38,30.28,68.38,69.64,0,45.17-28.52,71.91-68.38,71.91h0ZM962.25,604.81c23.98,0,38.1-19.69,38.1-46.42s-14.89-44.16-38.1-44.16-38.36,17.66-38.36,44.16c0,29.27,16.4,46.42,38.36,46.42Z"/><path class="cls-1" d="M3206.3,417.34h-24.23v-25.23h24.23c11.1,0,17.16-4.03,19.68-11.1l5.3-14.13h-5.55l-52.99-133.73h32.04l38.36,101.43,37.59-101.43h31.04l-58.29,156.69c-6.81,17.91-20.94,27.5-47.18,27.5h0Z"/><path class="cls-1" d="M3158.8,366.89h-17.16c-29.02,0-44.66-14.38-44.66-40.87v-67.63h-23.46v-25.23h23.46v-45.67h29.78v45.67h34.56v25.23h-34.56v65.6c0,11.36,5.8,17.66,16.9,17.66h15.15v25.23h-.01Z"/><path class="cls-1" d="M3036.86,215.23c-10.85,0-19.18-8.58-19.18-19.43s8.33-19.18,19.18-19.18,19.18,8.33,19.18,19.18-8.08,19.43-19.18,19.43h0ZM3051.74,366.88h-29.78v-133.73h29.78v133.73Z"/><path class="cls-1" d="M2949.06,370.66c-36.58,0-58.29-17.16-60.05-46.42h28.76c1.01,14.38,13.37,21.95,29.77,21.95,15.14,0,23.21-5.8,23.21-16.15s-8.58-12.36-20.19-16.15l-17.66-5.8c-22.2-7.31-41.38-14.89-41.38-39.62s18.17-39.36,50.21-39.36,52.23,16.4,55.76,46.68h-28.26c-1.51-15.14-12.36-22.2-27.75-22.2-13.12,0-20.69,5.55-20.69,14.64,0,10.35,11.6,13.12,21.2,16.4l16.14,5.3c26.49,8.83,42.39,16.91,42.39,40.87s-18.67,39.86-51.47,39.86v.02-.02Z"/><path class="cls-1" d="M2828.51,366.87h-29.77v-133.73h23.97l3.53,26.24c8.57-18.17,24.23-27.75,46.43-27.75h5.04v29.02h-5.04c-27.76,0-44.16,14.89-44.16,40.12v66.11h0Z"/><path class="cls-1" d="M2714.19,370.66c-40.88,0-68.89-29.27-68.89-70.14,0-44.16,29.02-71.4,66.36-71.4s63.08,26.49,63.84,69.9v7.07h-100.42c2.02,23.47,16.65,39.36,39.36,39.36,15.39,0,27-7.57,31.54-20.94h29.02c-6.81,28.76-29.27,46.18-60.81,46.18v-.02h0ZM2676.35,285.12h68.37c-3.78-19.18-15.64-30.78-33.05-30.78s-30.78,11.61-35.32,30.78Z"/><path class="cls-1" d="M2584.14,366.88h-31.03l-55.76-133.73h32.3l39.11,98.66,38.86-98.66h32.3l-55.76,133.73h-.02Z"/><path class="cls-1" d="M2463.98,215.23c-10.86,0-19.18-8.58-19.18-19.43s8.32-19.18,19.18-19.18,19.18,8.33,19.18,19.18-8.08,19.43-19.18,19.43h0ZM2478.86,366.88h-29.78v-133.73h29.78v133.73Z"/><path class="cls-1" d="M2331.51,366.87h-29.77v-133.73h23.98l2.53,19.68c8.32-13.88,25.23-23.72,45.17-23.72,28.52,0,47.19,19.18,47.19,49.2v88.57h-29.78v-87.05c0-14.89-9.84-24.73-26.49-24.73-19.43,0-32.55,13.37-32.8,30.78v81h-.03Z"/><path class="cls-1" d="M2196.32,370.66c-45.42,0-73.68-26.75-73.68-62.57v-117.84h30.28v117.07c0,22.71,18.42,35.58,43.15,35.58s43.4-12.87,43.4-35.58v-117.07h30.28v117.84c0,35.32-27.5,62.57-73.42,62.57h-.01Z"/><path class="cls-1" d="M1948.36,366.87h-29.78v-133.73h23.98l2.53,19.68c8.32-13.88,25.23-23.72,45.17-23.72,28.52,0,47.19,19.18,47.19,49.2v88.57h-29.77v-87.05c0-14.89-9.85-24.73-26.5-24.73-19.43,0-32.55,13.37-32.8,30.78v81h-.02Z"/><path class="cls-1" d="M1814.15,369.65c-30.78,0-50.97-14.89-50.72-39.86.25-31.29,31.29-37.85,57.28-40.87,20.18-2.27,35.07-3.03,35.32-13.63-.25-13.12-10.35-21.7-27.5-21.7s-30.28,9.58-32.04,23.47h-30.02c2.78-28.26,28.01-47.94,62.57-47.94s56.01,19.68,56.01,48.19v60.56c0,3.79,2.02,5.8,6.56,5.8h7.31v23.21h-14.13c-13.63,0-21.96-5.55-24.23-15.64-.51-1.26-1.01-3.03-1.27-4.54-7.82,14.38-22.46,22.96-45.17,22.96h.03ZM1820.2,346.19c20.44,0,35.83-11.61,35.83-29.52v-18.67c-5.05,7.82-17.92,9.58-32.04,11.36-16.65,2.02-30.52,4.29-30.52,18.42,0,11.61,9.33,18.42,26.74,18.42h0Z"/><path class="cls-1" d="M1683.73,370.66c-43.65,0-69.13-31.29-69.13-71.66,0-43.91,29.52-69.9,68.38-69.9,36.58,0,61.31,22.46,63.84,55.76h-29.27c-2.77-18.42-15.89-30.28-34.82-30.28-22.7,0-37.85,17.16-37.85,44.41,0,29.27,16.65,46.18,38.86,46.18,18.17,0,30.78-11.61,33.81-30.78h29.27c-3.53,34.57-27.51,56.27-63.08,56.27h-.01Z"/><path class="cls-1" d="M1576.42,215.23c-10.85,0-19.18-8.58-19.18-19.43s8.33-19.18,19.18-19.18,19.18,8.33,19.18,19.18-8.08,19.43-19.18,19.43h0ZM1591.31,366.88h-29.77v-133.73h29.77v133.73Z"/><path class="cls-1" d="M1492.75,366.87h-29.77v-133.73h23.97l3.53,26.24c8.58-18.17,24.22-27.75,46.42-27.75h5.05v29.02h-5.05c-27.75,0-44.15,14.89-44.15,40.12v66.11h0Z"/><path class="cls-1" d="M1378.42,370.66c-40.87,0-68.88-29.27-68.88-70.14,0-44.16,29.02-71.4,66.36-71.4s63.08,26.49,63.84,69.9v7.07h-100.42c2.02,23.47,16.65,39.36,39.36,39.36,15.39,0,27-7.57,31.54-20.94h29.02c-6.81,28.76-29.27,46.18-60.81,46.18v-.02h0ZM1340.58,285.12h68.38c-3.79-19.18-15.64-30.78-33.05-30.78s-30.78,11.61-35.32,30.78h-.01Z"/><path class="cls-1" d="M1114.27,366.87h-29.77v-133.73h23.98l2.27,18.67c8.32-13.12,24.73-22.71,44.66-22.71s33.82,9.58,40.88,24.98c7.58-14.13,24.73-24.98,45.92-24.98,28.01,0,45.92,19.93,45.92,48.69v89.07h-30.02v-87.56c0-14.89-9.09-24.47-23.47-24.47-20.44,0-33.3,13.37-33.56,31.03v81h-29.77v-87.56c0-14.89-9.09-24.47-23.47-24.47-20.44,0-33.3,13.37-33.56,31.03v81h-.01Z"/><path class="cls-1" d="M921.37,366.88h-31.29l72.17-176.62h30.28l72.41,176.62h-31.29l-17.92-43.65h-76.46l-17.92,43.65h.02ZM977.63,229.36l-27.51,67.12h54.75l-27.25-67.12h.01Z"/></g><g id="Powered_by" data-name="Powered by"><path class="cls-1" d="M890.09,868.46v-71.23h26.86c4.73,0,8.34.22,10.83.68,3.5.58,6.43,1.69,8.8,3.33,2.37,1.63,4.26,3.93,5.71,6.88,1.44,2.95,2.16,6.19,2.16,9.72,0,6.06-1.93,11.18-5.78,15.38-3.85,4.19-10.81,6.29-20.89,6.29h-18.27v28.96h-9.42,0ZM899.51,831.1h18.41c6.09,0,10.41-1.14,12.98-3.4,2.56-2.27,3.83-5.46,3.83-9.58,0-2.98-.75-5.53-2.26-7.66-1.51-2.12-3.5-3.52-5.95-4.2-1.59-.42-4.52-.63-8.8-.63h-18.22v25.46h.01Z"/><path class="cls-1" d="M952.08,842.66c0-9.55,2.66-16.63,7.97-21.23,4.44-3.82,9.85-5.73,16.22-5.73,7.09,0,12.9,2.33,17.4,6.98,4.5,4.65,6.75,11.07,6.75,19.26,0,6.64-.99,11.87-2.99,15.67-1.99,3.8-4.89,6.76-8.69,8.87-3.8,2.1-7.96,3.15-12.46,3.15-7.23,0-13.06-2.32-17.52-6.95-4.45-4.64-6.69-11.31-6.69-20.02h.01ZM961.07,842.66c0,6.61,1.44,11.55,4.32,14.84,2.88,3.29,6.51,4.93,10.89,4.93s7.95-1.65,10.83-4.96c2.88-3.3,4.33-8.34,4.33-15.11,0-6.38-1.45-11.21-4.35-14.5-2.9-3.29-6.5-4.93-10.81-4.93s-8,1.63-10.89,4.91c-2.88,3.27-4.32,8.21-4.32,14.82h0Z"/><path class="cls-1" d="M1020.2,868.46l-15.79-51.6h9.04l8.21,29.78,3.06,11.08c.13-.55,1.02-4.1,2.68-10.64l8.21-30.22h8.99l7.73,29.93,2.57,9.86,2.96-9.96,8.85-29.84h8.51l-16.13,51.6h-9.08l-8.21-30.9-1.99-8.8-10.44,39.7h-9.17Z"/><path class="cls-1" d="M1117.86,851.84l9.04,1.11c-1.43,5.28-4.06,9.38-7.91,12.29s-8.77,4.37-14.77,4.37c-7.54,0-13.53-2.33-17.95-6.98-4.42-4.65-6.63-11.16-6.63-19.55s2.23-15.42,6.7-20.21c4.47-4.8,10.27-7.19,17.4-7.19s12.54,2.35,16.91,7.04c4.38,4.7,6.56,11.31,6.56,19.83,0,.52-.02,1.29-.05,2.33h-38.48c.33,5.67,1.93,10.01,4.81,13.02s6.48,4.52,10.79,4.52c3.21,0,5.95-.84,8.21-2.53,2.26-1.68,4.06-4.38,5.39-8.07h0l-.02.02ZM1089.15,837.71h28.81c-.39-4.35-1.49-7.59-3.3-9.77-2.79-3.37-6.4-5.05-10.83-5.05-4.02,0-7.39,1.34-10.13,4.03s-4.26,6.28-4.54,10.79h-.01Z"/><path class="cls-1" d="M1137.78,868.46v-51.6h7.87v7.82c2.01-3.66,3.86-6.08,5.57-7.24,1.7-1.17,3.57-1.75,5.61-1.75,2.95,0,5.94.94,8.99,2.82l-3.01,8.12c-2.13-1.26-4.27-1.9-6.42-1.9-1.91,0-3.63.57-5.15,1.73-1.52,1.15-2.6,2.75-3.26,4.79-.97,3.11-1.46,6.51-1.46,10.21v27.01h-8.74,0Z"/><path class="cls-1" d="M1206.33,851.84l9.04,1.11c-1.43,5.28-4.06,9.38-7.92,12.29-3.85,2.91-8.77,4.37-14.77,4.37-7.54,0-13.53-2.33-17.95-6.98-4.43-4.65-6.63-11.16-6.63-19.55s2.23-15.42,6.7-20.21c4.47-4.8,10.27-7.19,17.4-7.19s12.54,2.35,16.91,7.04c4.37,4.7,6.56,11.31,6.56,19.83,0,.52-.02,1.29-.05,2.33h-38.48c.33,5.67,1.93,10.01,4.81,13.02s6.48,4.52,10.78,4.52c3.21,0,5.95-.84,8.21-2.53,2.26-1.68,4.06-4.38,5.39-8.07h0v.02ZM1177.62,837.71h28.81c-.39-4.35-1.5-7.59-3.31-9.77-2.78-3.37-6.4-5.05-10.83-5.05-4.02,0-7.39,1.34-10.13,4.03s-4.26,6.28-4.55,10.79h.01Z"/><path class="cls-1" d="M1259.83,868.46v-6.51c-3.27,5.12-8.09,7.68-14.43,7.68-4.11,0-7.89-1.14-11.35-3.4-3.45-2.26-6.12-5.43-8.02-9.5-1.9-4.06-2.84-8.74-2.84-14.02s.86-9.82,2.57-14.02c1.72-4.19,4.3-7.41,7.73-9.64,3.43-2.23,7.27-3.35,11.51-3.35,3.11,0,5.88.66,8.31,1.97s4.41,3.01,5.93,5.12v-25.56h8.69v71.23h-8.12l.02-.02v.02ZM1232.19,842.71c0,6.61,1.39,11.55,4.18,14.82s6.08,4.91,9.86,4.91,7.07-1.56,9.74-4.69c2.68-3.13,4.01-7.9,4.01-14.31,0-7.06-1.36-12.24-4.08-15.55-2.72-3.3-6.07-4.95-10.06-4.95s-7.13,1.59-9.74,4.76c-2.6,3.18-3.91,8.18-3.91,15.01Z"/><path class="cls-1" d="M1317.4,868.46h-8.11v-71.23h8.74v25.41c3.69-4.63,8.4-6.95,14.14-6.95,3.18,0,6.18.65,9.01,1.92,2.84,1.28,5.17,3.07,7,5.39s3.26,5.11,4.3,8.39c1.03,3.27,1.56,6.78,1.56,10.5,0,8.84-2.18,15.68-6.56,20.5-4.38,4.83-9.62,7.24-15.74,7.24s-10.87-2.54-14.33-7.63v6.46-.02.02ZM1317.31,842.27c0,6.19.84,10.66,2.52,13.4,2.76,4.5,6.48,6.76,11.17,6.76,3.82,0,7.12-1.66,9.91-4.98s4.18-8.27,4.18-14.84-1.33-11.71-4.01-14.91c-2.68-3.21-5.91-4.81-9.7-4.81s-7.12,1.66-9.91,4.98-4.18,8.12-4.18,14.4h.02Z"/><path class="cls-1" d="M1364.29,888.33l-.97-8.21c1.91.52,3.58.78,5,.78,1.95,0,3.5-.33,4.66-.98,1.17-.65,2.12-1.56,2.87-2.72.55-.87,1.45-3.04,2.68-6.51.16-.48.42-1.2.78-2.13l-19.58-51.7h9.42l10.74,29.88c1.39,3.79,2.64,7.78,3.74,11.95,1-4.02,2.2-7.93,3.6-11.76l11.03-30.07h8.74l-19.63,52.47c-2.1,5.67-3.74,9.57-4.91,11.71-1.56,2.88-3.33,4.99-5.34,6.34-2.01,1.34-4.41,2.02-7.19,2.02-1.68,0-3.56-.36-5.64-1.07h0Z"/><path class="cls-1" d="M1446.17,868.46l45.59-118.72h16.92l48.58,118.72h-17.9l-13.85-35.95h-49.64l-13.04,35.95h-16.68.02ZM1480.42,819.71h40.24l-12.39-32.87c-3.78-9.99-6.58-18.2-8.42-24.62-1.51,7.61-3.65,15.17-6.4,22.68l-13.04,34.82h.01Z"/><path class="cls-1" d="M1567.8,868.46v-86h13.12v13.04c3.34-6.1,6.44-10.12,9.27-12.07,2.83-1.94,5.95-2.91,9.36-2.91,4.91,0,9.9,1.57,14.98,4.7l-5.02,13.52c-3.56-2.1-7.12-3.15-10.69-3.15-3.18,0-6.04.96-8.59,2.87-2.54,1.92-4.34,4.58-5.42,7.98-1.62,5.18-2.43,10.85-2.43,17.01v45.02h-14.58v-.02h0Z"/><path class="cls-1" d="M1623.27,766.51v-16.77h14.58v16.77h-14.58ZM1623.27,868.46v-86h14.58v86h-14.58Z"/><path class="cls-1" d="M1652.34,868.46v-11.82l54.73-62.84c-6.21.32-11.69.49-16.43.49h-35.07v-11.82h70.28v9.63l-46.56,54.58-8.99,9.96c6.53-.49,12.66-.73,18.38-.73h39.76v12.55h-76.12.02Z"/><path class="cls-1" d="M1737.52,825.47c0-15.93,4.43-27.72,13.28-35.4,7.39-6.37,16.42-9.55,27.05-9.55,11.82,0,21.49,3.88,28.99,11.62,7.5,7.75,11.25,18.45,11.25,32.11,0,11.06-1.66,19.77-4.98,26.12-3.32,6.34-8.15,11.27-14.49,14.78s-13.27,5.26-20.77,5.26c-12.04,0-21.77-3.86-29.19-11.58-7.43-7.72-11.14-18.83-11.14-33.36h0ZM1752.5,825.47c0,11.01,2.4,19.25,7.2,24.73,4.81,5.48,10.85,8.22,18.14,8.22s13.25-2.76,18.06-8.26c4.8-5.5,7.21-13.9,7.21-25.19,0-10.63-2.41-18.69-7.25-24.17-4.83-5.48-10.84-8.22-18.02-8.22s-13.33,2.73-18.14,8.18c-4.8,5.46-7.2,13.68-7.2,24.71Z"/><path class="cls-1" d="M1835.18,868.46v-86h13.12v12.23c6.31-9.45,15.43-14.17,27.37-14.17,5.19,0,9.95.93,14.29,2.8,4.35,1.86,7.6,4.3,9.76,7.33s3.67,6.61,4.54,10.77c.54,2.7.81,7.43.81,14.18v52.88h-14.58v-52.31c0-5.94-.57-10.38-1.7-13.32-1.14-2.94-3.15-5.29-6.04-7.04s-6.27-2.63-10.16-2.63c-6.21,0-11.57,1.97-16.07,5.91-4.51,3.95-6.76,11.42-6.76,22.43v46.97h-14.58v-.03Z"/><path class="cls-1" d="M1983.54,857.85c-5.4,4.59-10.59,7.83-15.59,9.72-4.99,1.89-10.36,2.83-16.07,2.83-9.45,0-16.71-2.31-21.78-6.93-5.07-4.62-7.61-10.51-7.61-17.7,0-4.21.96-8.05,2.88-11.54,1.91-3.48,4.42-6.28,7.53-8.38,3.11-2.11,6.6-3.7,10.48-4.78,2.86-.76,7.18-1.49,12.96-2.18,11.77-1.41,20.43-3.08,25.99-5.02.05-2,.08-3.26.08-3.81,0-5.94-1.37-10.12-4.13-12.55-3.72-3.29-9.26-4.94-16.6-4.94-6.85,0-11.92,1.21-15.18,3.6-3.26,2.41-5.68,6.66-7.25,12.75l-14.25-1.95c1.3-6.1,3.43-11.03,6.4-14.78s7.26-6.64,12.87-8.66c5.61-2.03,12.12-3.04,19.52-3.04s13.31.87,17.9,2.6c4.59,1.72,7.97,3.9,10.12,6.52,2.16,2.62,3.67,5.92,4.54,9.92.48,2.48.73,6.96.73,13.44v19.43c0,13.55.31,22.12.93,25.71s1.85,7.03,3.68,10.32h-15.22c-1.52-3.03-2.49-6.56-2.91-10.61l-.02.03ZM1982.32,825.3c-5.29,2.16-13.23,4-23.81,5.5-5.99.87-10.22,1.83-12.71,2.91-2.48,1.08-4.4,2.66-5.75,4.74s-2.03,4.38-2.03,6.93c0,3.89,1.47,7.13,4.42,9.72,2.94,2.59,7.25,3.88,12.91,3.88s10.61-1.22,14.98-3.68c4.38-2.45,7.59-5.82,9.63-10.08,1.57-3.3,2.35-8.15,2.35-14.58v-5.34h.01Z"/><path class="cls-1" d="M2062.25,830.32l14.82-1.29c.7,5.94,2.33,10.81,4.9,14.62,2.56,3.8,6.54,6.88,11.94,9.22,5.4,2.35,11.47,3.53,18.23,3.53,5.99,0,11.28-.89,15.87-2.67,4.59-1.78,8-4.22,10.24-7.33,2.24-3.1,3.36-6.49,3.36-10.16s-1.08-6.98-3.24-9.75c-2.16-2.78-5.73-5.11-10.69-7.01-3.18-1.24-10.23-3.17-21.14-5.79s-18.54-5.09-22.92-7.41c-5.67-2.97-9.89-6.65-12.67-11.05-2.78-4.4-4.17-9.32-4.17-14.78,0-5.99,1.7-11.59,5.1-16.8,3.4-5.21,8.37-9.17,14.9-11.87,6.53-2.7,13.79-4.05,21.78-4.05,8.8,0,16.56,1.42,23.28,4.25s11.89,7,15.51,12.51,5.56,11.75,5.83,18.71l-15.06,1.13c-.81-7.5-3.55-13.17-8.22-17.01s-11.57-5.75-20.68-5.75-16.43,1.74-20.78,5.22c-4.34,3.48-6.52,7.68-6.52,12.6,0,4.26,1.54,7.77,4.61,10.53,3.03,2.76,10.92,5.58,23.69,8.46,12.77,2.89,21.53,5.42,26.27,7.58,6.91,3.18,12.02,7.22,15.3,12.1,3.29,4.88,4.94,10.51,4.94,16.88s-1.81,12.27-5.42,17.86c-3.61,5.58-8.81,9.93-15.59,13.04-6.77,3.1-14.4,4.66-22.88,4.66-10.74,0-19.74-1.56-27-4.69s-12.96-7.84-17.09-14.13c-4.13-6.29-6.31-13.4-6.52-21.34l.02-.03h0Z"/><path class="cls-1" d="M2208.17,855.42l2.11,12.87c-4.11.86-7.77,1.29-11.02,1.29-5.29,0-9.39-.84-12.31-2.51-2.91-1.68-4.97-3.88-6.15-6.6-1.19-2.73-1.78-8.47-1.78-17.21v-49.48h-10.69v-11.34h10.69v-21.3l14.49-8.74v30.04h14.66v11.34h-14.66v50.29c0,4.16.25,6.83.77,8.02.51,1.19,1.35,2.13,2.51,2.83,1.16.71,2.82,1.06,4.98,1.06,1.62,0,3.75-.19,6.4-.57h0Z"/><path class="cls-1" d="M2278.53,857.85c-5.4,4.59-10.59,7.83-15.58,9.72-4.99,1.89-10.36,2.83-16.07,2.83-9.45,0-16.71-2.31-21.78-6.93-5.08-4.62-7.61-10.51-7.61-17.7,0-4.21.96-8.05,2.87-11.54,1.91-3.48,4.43-6.28,7.53-8.38,3.1-2.11,6.6-3.7,10.48-4.78,2.86-.76,7.18-1.49,12.96-2.18,11.77-1.41,20.43-3.08,25.99-5.02.06-2,.08-3.26.08-3.81,0-5.94-1.37-10.12-4.13-12.55-3.72-3.29-9.26-4.94-16.6-4.94-6.85,0-11.92,1.21-15.18,3.6-3.26,2.41-5.68,6.66-7.25,12.75l-14.25-1.95c1.3-6.1,3.43-11.03,6.4-14.78s7.26-6.64,12.87-8.66c5.61-2.03,12.12-3.04,19.52-3.04s13.31.87,17.9,2.6c4.59,1.72,7.96,3.9,10.12,6.52,2.16,2.62,3.67,5.92,4.53,9.92.48,2.48.73,6.96.73,13.44v19.43c0,13.55.31,22.12.93,25.71.62,3.59,1.85,7.03,3.68,10.32h-15.22c-1.51-3.03-2.48-6.56-2.91-10.61v.03ZM2277.32,825.3c-5.29,2.16-13.23,4-23.81,5.5-5.99.87-10.23,1.83-12.71,2.91-2.48,1.08-4.4,2.66-5.75,4.74s-2.03,4.38-2.03,6.93c0,3.89,1.47,7.13,4.41,9.72,2.94,2.59,7.25,3.88,12.91,3.88s10.61-1.22,14.98-3.68c4.38-2.46,7.58-5.82,9.63-10.08,1.57-3.3,2.35-8.15,2.35-14.58v-5.34h.02Z"/><path class="cls-1" d="M2346.47,855.42l2.11,12.87c-4.11.86-7.78,1.29-11.02,1.29-5.29,0-9.39-.84-12.31-2.51-2.91-1.68-4.97-3.88-6.15-6.6-1.19-2.73-1.78-8.47-1.78-17.21v-49.48h-10.69v-11.34h10.69v-21.3l14.49-8.74v30.04h14.66v11.34h-14.66v50.29c0,4.16.25,6.83.77,8.02.51,1.19,1.35,2.13,2.51,2.83,1.16.71,2.82,1.06,4.98,1.06,1.62,0,3.75-.19,6.4-.57h0Z"/><path class="cls-1" d="M2419.59,840.77l15.07,1.86c-2.38,8.8-6.78,15.63-13.2,20.49s-14.64,7.29-24.62,7.29c-12.58,0-22.55-3.88-29.92-11.62-7.37-7.74-11.06-18.61-11.06-32.6s3.73-25.69,11.17-33.68c7.45-7.99,17.11-11.98,28.99-11.98s20.89,3.91,28.18,11.74,10.94,18.84,10.94,33.03c0,.87-.03,2.16-.08,3.89h-64.13c.54,9.44,3.21,16.68,8.01,21.7s10.8,7.53,17.98,7.53c5.34,0,9.9-1.41,13.68-4.21,3.78-2.81,6.78-7.29,8.99-13.44h0ZM2371.74,817.21h48.02c-.65-7.24-2.48-12.66-5.51-16.28-4.65-5.61-10.66-8.42-18.06-8.42-6.69,0-12.32,2.24-16.88,6.72-4.56,4.48-7.08,10.47-7.57,17.98h0Z"/><path class="cls-1" d="M2578.79,749.75h15.71v68.59c0,11.94-1.35,21.41-4.05,28.43s-7.57,12.73-14.62,17.12c-7.04,4.4-16.28,6.6-27.74,6.6s-20.22-1.92-27.29-5.75c-7.08-3.83-12.12-9.37-15.14-16.63-3.03-7.27-4.54-17.18-4.54-29.76v-68.59h15.71v68.51c0,10.32.96,17.91,2.88,22.8,1.91,4.88,5.21,8.65,9.88,11.29,4.67,2.65,10.38,3.97,17.13,3.97,11.55,0,19.79-2.62,24.7-7.85s7.37-15.3,7.37-30.21v-68.51h.02-.02Z"/><path class="cls-1" d="M2618.8,868.46v-86h13.12v12.23c6.31-9.45,15.44-14.17,27.37-14.17,5.18,0,9.95.93,14.29,2.8,4.35,1.86,7.6,4.3,9.76,7.33s3.67,6.61,4.53,10.77c.54,2.7.81,7.43.81,14.18v52.88h-14.58v-52.31c0-5.94-.56-10.38-1.7-13.32-1.13-2.94-3.14-5.29-6.03-7.04-2.89-1.75-6.28-2.63-10.17-2.63-6.21,0-11.57,1.97-16.07,5.91-4.51,3.95-6.76,11.42-6.76,22.43v46.97h-14.58v-.03Z"/><path class="cls-1" d="M2711.11,766.51v-16.77h14.58v16.77h-14.58ZM2711.11,868.46v-86h14.58v86h-14.58Z"/><path class="cls-1" d="M2771.76,868.46l-32.72-86h15.39l18.46,51.5c1.99,5.57,3.83,11.34,5.5,17.33,1.3-4.53,3.1-9.99,5.42-16.36l19.11-52.47h14.98l-32.55,86h-13.6.01Z"/><path class="cls-1" d="M2889.67,840.77l15.07,1.86c-2.38,8.8-6.78,15.63-13.2,20.49-6.43,4.86-14.64,7.29-24.62,7.29-12.58,0-22.55-3.88-29.92-11.62-7.37-7.74-11.05-18.61-11.05-32.6s3.72-25.69,11.17-33.68,17.12-11.98,28.99-11.98,20.89,3.91,28.18,11.74,10.94,18.84,10.94,33.03c0,.87-.03,2.16-.08,3.89h-64.13c.54,9.44,3.21,16.68,8.01,21.7s10.8,7.53,17.98,7.53c5.34,0,9.91-1.41,13.69-4.21,3.78-2.81,6.77-7.29,8.99-13.44h-.02ZM2841.81,817.21h48.02c-.65-7.24-2.49-12.66-5.51-16.28-4.65-5.61-10.66-8.42-18.06-8.42-6.69,0-12.32,2.24-16.88,6.72-4.56,4.48-7.08,10.47-7.57,17.98h0Z"/><path class="cls-1" d="M2922.87,868.46v-86h13.12v13.04c3.35-6.1,6.44-10.12,9.27-12.07,2.83-1.94,5.95-2.91,9.36-2.91,4.91,0,9.9,1.57,14.98,4.7l-5.02,13.52c-3.57-2.1-7.13-3.15-10.69-3.15-3.18,0-6.04.96-8.58,2.87-2.54,1.92-4.35,4.58-5.43,7.98-1.62,5.18-2.43,10.85-2.43,17.01v45.02h-14.58v-.02h0Z"/><path class="cls-1" d="M2972.43,842.79l14.42-2.26c.81,5.77,3.06,10.21,6.76,13.28s8.87,4.61,15.51,4.61,11.66-1.37,14.9-4.09c3.24-2.73,4.86-5.92,4.86-9.6,0-3.3-1.43-5.88-4.3-7.77-1.99-1.3-6.96-2.94-14.9-4.94-10.69-2.7-18.1-5.03-22.23-7s-7.26-4.69-9.4-8.18c-2.13-3.48-3.2-7.33-3.2-11.54,0-3.83.87-7.38,2.64-10.65,1.75-3.26,4.15-5.98,7.16-8.14,2.27-1.68,5.36-3.09,9.27-4.26,3.91-1.16,8.11-1.74,12.59-1.74,6.75,0,12.67.98,17.77,2.91,5.11,1.95,8.87,4.57,11.29,7.9,2.43,3.32,4.11,7.76,5.02,13.32l-14.25,1.94c-.65-4.43-2.53-7.89-5.63-10.36-3.1-2.48-7.49-3.73-13.16-3.73-6.69,0-11.47,1.11-14.33,3.32-2.87,2.22-4.3,4.81-4.3,7.78,0,1.89.6,3.59,1.78,5.1,1.18,1.56,3.05,2.86,5.58,3.89,1.46.54,5.75,1.78,12.87,3.72,10.31,2.75,17.5,5,21.58,6.76,4.07,1.75,7.27,4.3,9.59,7.66,2.32,3.35,3.49,7.5,3.49,12.47s-1.42,9.43-4.25,13.73c-2.83,4.29-6.93,7.61-12.27,9.96-5.34,2.34-11.39,3.53-18.13,3.53-11.17,0-19.7-2.33-25.55-6.96-5.86-4.65-9.59-11.53-11.21-20.65h.03Z"/><path class="cls-1" d="M3061.25,766.51v-16.77h14.58v16.77h-14.58ZM3061.25,868.46v-86h14.58v86h-14.58Z"/><path class="cls-1" d="M3129.85,855.42l2.11,12.87c-4.11.86-7.78,1.29-11.02,1.29-5.29,0-9.39-.84-12.31-2.51-2.91-1.68-4.97-3.88-6.15-6.6-1.19-2.73-1.78-8.47-1.78-17.21v-49.48h-10.69v-11.34h10.69v-21.3l14.49-8.74v30.04h14.66v11.34h-14.66v50.29c0,4.16.25,6.83.77,8.02.51,1.19,1.35,2.13,2.51,2.83,1.16.71,2.82,1.06,4.98,1.06,1.62,0,3.75-.19,6.4-.57h0Z"/><path class="cls-1" d="M3143.45,901.59l-1.62-13.68c3.18.87,5.96,1.29,8.34,1.29,3.24,0,5.83-.54,7.77-1.62,1.95-1.08,3.53-2.59,4.78-4.53.91-1.45,2.4-5.08,4.45-10.85.27-.81.7-2,1.3-3.57l-32.64-86.16h15.71l17.9,49.8c2.32,6.31,4.4,12.96,6.23,19.93,1.66-6.69,3.67-13.23,5.99-19.6l18.38-50.12h14.58l-32.72,87.46c-3.51,9.44-6.23,15.95-8.18,19.51-2.59,4.81-5.56,8.33-8.91,10.57-3.35,2.24-7.34,3.36-11.98,3.36-2.81,0-5.94-.59-9.39-1.78v-.02h0Z"/><path class="cls-1" d="M3275.12,763.94c6.15,0,12.16,1.58,18.02,4.74s10.43,7.68,13.7,13.55c3.27,5.88,4.91,12,4.91,18.39s-1.61,12.39-4.84,18.22c-3.22,5.83-7.74,10.36-13.55,13.58-5.81,3.22-11.89,4.83-18.24,4.83s-12.43-1.61-18.25-4.83c-5.81-3.23-10.34-7.75-13.58-13.58s-4.86-11.9-4.86-18.22,1.64-12.51,4.93-18.39,7.86-10.39,13.72-13.55c5.86-3.16,11.87-4.74,18.03-4.74h.01ZM3275.12,770.01c-5.16,0-10.17,1.32-15.04,3.95-4.88,2.64-8.69,6.42-11.44,11.32-2.75,4.91-4.13,10.02-4.13,15.33s1.35,10.34,4.06,15.18c2.71,4.85,6.49,8.62,11.35,11.32,4.86,2.71,9.92,4.06,15.21,4.06s10.34-1.35,15.2-4.06c4.86-2.7,8.63-6.48,11.32-11.32,2.68-4.84,4.03-9.9,4.03-15.18s-1.36-10.42-4.1-15.33c-2.74-4.91-6.55-8.68-11.44-11.32-4.89-2.63-9.89-3.95-15.02-3.95h0ZM3259.03,820.87v-39.45h13.55c4.63,0,7.99.37,10.06,1.1s3.73,2,4.96,3.82,1.85,3.74,1.85,5.78c0,2.88-1.03,5.39-3.09,7.53-2.06,2.13-4.79,3.33-8.19,3.6,1.39.59,2.51,1.28,3.35,2.09,1.59,1.56,3.53,4.16,5.83,7.83l4.81,7.73h-7.77l-3.5-6.22c-2.76-4.89-4.97-7.96-6.66-9.19-1.17-.91-2.86-1.36-5.1-1.36h-3.74v16.77h-6.37v-.03ZM3265.4,798.68h7.73c3.7,0,6.21-.55,7.55-1.65,1.34-1.1,2.02-2.56,2.02-4.37,0-1.17-.33-2.21-.97-3.13-.65-.92-1.55-1.61-2.7-2.06s-3.28-.68-6.39-.68h-7.24v11.9h0Z"/></g></svg>